<?xml version="1.0" encoding="UTF-8" standalone="no"?>
<svg width="660px" height="660px" viewBox="0 0 660 660" version="1.1" xmlns="http://www.w3.org/2000/svg" xmlns:xlink="http://www.w3.org/1999/xlink">
    <defs></defs>
    <g stroke="none" stroke-width="1" fill="none" fill-rule="evenodd">
        <g transform="translate(1.000000, 1.000000)">
            <circle stroke="#C98C81" stroke-width="3" opacity="0.24082324" cx="329" cy="329" r="250"></circle>
            <ellipse stroke="#C98C81" stroke-width="2" opacity="0.179999992" cx="329" cy="329" rx="329" ry="329"></ellipse>
            <path d="M477.161102,57 C477.161102,76.4097632 492.887422,92.1444057 512.28692,92.1444057 C531.686417,92.1444057 547.412738,76.4097632 547.412738,57 C547.412738,37.5902368 531.686417,21.8555943 512.28692,21.8555943 C492.887422,21.8555943 477.161102,37.5902368 477.161102,57 Z" fill="#C98C81"></path>
            <path d="M545.884783,256.326784 C545.884783,268.222664 555.52315,277.866132 567.412738,277.866132 C579.302326,277.866132 588.940693,268.222664 588.940693,256.326784 C588.940693,244.430905 579.302326,234.787437 567.412738,234.787437 C555.52315,234.787437 545.884783,244.430905 545.884783,256.326784 Z" fill="#79A69F"></path>
        </g>
    </g>
</svg>