<?xml version="1.0" standalone="no"?><!DOCTYPE svg PUBLIC "-//W3C//DTD SVG 1.1//EN" "http://www.w3.org/Graphics/SVG/1.1/DTD/svg11.dtd"><svg t="1546255000473" class="icon" style="" viewBox="0 0 1024 1024" version="1.1" xmlns="http://www.w3.org/2000/svg" p-id="2128" xmlns:xlink="http://www.w3.org/1999/xlink" width="32" height="32"><defs><style type="text/css">html, * { -moz-user-select: text !important; }
</style></defs><path d="M1009.066667 337.066667c-6.4-59.733333-32-110.933333-72.533333-140.8C913.066667 179.2 885.333333 170.666667 855.466667 170.666667 832 170.666667 810.666667 177.066667 793.6 187.733333c-34.133333-32-81.066667-59.733333-142.933333-74.666667-40.533333-10.666667-81.066667-14.933333-121.6-14.933333-64 0-119.466667 12.8-153.6 36.266667-8.533333-29.866667-34.133333-57.6-64-70.4-12.8-6.4-34.133333-10.666667-53.333333-10.666667-17.066667 0-32 4.266667-40.533333 12.8-4.266667 2.133333-4.266667 8.533333-4.266667 10.666667 2.133333 4.266667 4.266667 6.4 10.666667 6.4 17.066667 0 42.666667 19.2 53.333333 34.133333 8.533333 12.8 12.8 29.866667 14.933333 46.933333-17.066667 2.133333-36.266667 4.266667-53.333333 8.533333C219.733333 170.666667 200.533333 168.533333 181.333333 170.666667c-36.266667 2.133333-66.133333 17.066667-85.333333 38.4-17.066667 21.333333-25.6 49.066667-23.466667 78.933333 0 4.266667 0 6.4 2.133333 8.533333-46.933333 72.533333-68.266667 162.133333-55.466667 256 0 4.266667 2.133333 6.4 6.4 8.533333 4.266667 2.133333 8.533333 0 10.666667-2.133333 2.133333-2.133333 6.4-4.266667 8.533333-6.4-8.533333 38.4-12.8 81.066667-12.8 125.866667 2.133333 61.866667 19.2 117.333333 49.066667 157.866667 2.133333 2.133333 4.266667 4.266667 8.533333 4.266667 2.133333 0 2.133333 0 4.266667 0 4.266667-2.133333 6.4-6.4 6.4-10.666667 0-12.8 0-21.333333 0-29.866667C102.4 804.266667 104.533333 810.666667 106.666667 817.066667c25.6 57.6 87.466667 106.666667 166.4 130.133333 44.8 14.933333 96 19.2 142.933333 19.2 21.333333 0 42.666667 0 61.866667-2.133333 138.666667-8.533333 260.266667-59.733333 307.2-132.266667 6.4 14.933333 17.066667 36.266667 34.133333 46.933333 23.466667 17.066667 51.2 25.6 78.933333 25.6 27.733333 0 53.333333-8.533333 76.8-25.6 4.266667-2.133333 4.266667-6.4 4.266667-12.8-2.133333-4.266667-4.266667-6.4-10.666667-8.533333-12.8 0-32-21.333333-42.666667-46.933333-27.733333-61.866667-27.733333-130.133333-2.133333-185.6 6.4 6.4 17.066667 14.933333 23.466667 25.6 2.133333 4.266667 6.4 4.266667 12.8 4.266667 4.266667-2.133333 6.4-4.266667 6.4-10.666667 2.133333-44.8 12.8-89.6 23.466667-134.4l4.266667-17.066667C1002.666667 443.733333 1013.333333 390.4 1009.066667 337.066667zM465.066667 262.4c4.266667-42.666667 74.666667-72.533333 134.4-72.533333 6.4 0 14.933333 0 21.333333 2.133333 59.733333 6.4 91.733333 44.8 85.333333 98.133333-6.4 55.466667-44.8 85.333333-104.533333 76.8-59.733333-6.4-125.866667-49.066667-134.4-91.733333 0 0 0 0 0 0 0-2.133333 0-6.4 0-8.533333C465.066667 264.533333 465.066667 264.533333 465.066667 262.4zM356.266667 256c12.8-6.4 29.866667-10.666667 46.933333-10.666667 14.933333 0 29.866667 2.133333 42.666667 6.4 0 2.133333 0 4.266667-2.133333 6.4 0 6.4 0 12.8 0 17.066667-10.666667-6.4-25.6-8.533333-40.533333-8.533333-21.333333 0-38.4 6.4-46.933333 12.8 0-4.266667 0-8.533333 0-14.933333C356.266667 262.4 356.266667 260.266667 356.266667 256L356.266667 256zM96 302.933333c0-4.266667-2.133333-8.533333-2.133333-14.933333 0 0 0 0 0 0 0-6.4 0-10.666667 0-17.066667 2.133333-19.2 8.533333-36.266667 19.2-49.066667C128 204.8 151.466667 194.133333 183.466667 192c4.266667 0 6.4 0 10.666667 0 0 0 2.133333 0 4.266667 0 6.4 0 12.8 0 21.333333 2.133333 6.4 0 14.933333 2.133333 21.333333 4.266667 49.066667 10.666667 93.866667 38.4 96 72.533333 0 2.133333 0 2.133333 0 4.266667l0 0c0 4.266667 0 6.4-2.133333 10.666667-10.666667 42.666667-78.933333 81.066667-138.666667 85.333333C142.933333 373.333333 106.666667 347.733333 96 302.933333zM736 823.466667C736 823.466667 736 823.466667 736 823.466667c-42.666667 46.933333-136.533333 89.6-260.266667 98.133333-59.733333 4.266667-128 4.266667-189.866667-14.933333-66.133333-21.333333-119.466667-59.733333-138.666667-106.666667-10.666667-23.466667-17.066667-51.2-21.333333-83.2 0-12.8 0-25.6 0-40.533333 4.266667-66.133333 10.666667-134.4 42.666667-189.866667 36.266667 4.266667 76.8-4.266667 106.666667-23.466667 6.4 44.8 25.6 89.6 55.466667 123.733333 2.133333 4.266667 6.4 4.266667 10.666667 4.266667 4.266667-2.133333 6.4-4.266667 6.4-8.533333 2.133333-38.4 8.533333-76.8 14.933333-115.2 14.933333 29.866667 34.133333 55.466667 59.733333 74.666667 4.266667 2.133333 8.533333 2.133333 10.666667 2.133333 4.266667-2.133333 6.4-4.266667 6.4-8.533333 2.133333-32 4.266667-61.866667 10.666667-93.866667 19.2 19.2 51.2 40.533333 74.666667 46.933333 4.266667 0 8.533333 0 10.666667-4.266667 10.666667-12.8 14.933333-34.133333 14.933333-49.066667 21.333333 12.8 57.6 32 96 32 14.933333 0 29.866667-2.133333 42.666667-8.533333 6.4 10.666667 19.2 32 23.466667 61.866667 6.4 42.666667-4.266667 89.6-27.733333 147.2-2.133333 4.266667 0 10.666667 4.266667 12.8 4.266667 2.133333 10.666667 2.133333 14.933333-4.266667 10.666667-17.066667 29.866667-34.133333 46.933333-49.066667 2.133333-2.133333 6.4-4.266667 8.533333-8.533333C774.4 680.533333 753.066667 795.733333 736 823.466667zM881.066667 533.333333C881.066667 533.333333 881.066667 533.333333 881.066667 533.333333c0 2.133333 0 2.133333 0 4.266667-2.133333-4.266667-4.266667-8.533333-4.266667-12.8l0 0c-2.133333-2.133333-2.133333-6.4-4.266667-8.533333 0 0 0 0 0 0-46.933333-98.133333-153.6-151.466667-168.533333-160 14.933333-17.066667 23.466667-36.266667 25.6-61.866667 0-4.266667 0-10.666667 0-17.066667 32 17.066667 104.533333 57.6 142.933333 108.8 0 0 0 0 0 0 0 0 0 0 0 2.133333 4.266667 6.4 8.533333 12.8 10.666667 17.066667 0 0 0 4.266667 0 8.533333 0 2.133333 0 2.133333 0 4.266667 0 0 0 2.133333 0 2.133333 0 10.666667 2.133333 27.733333 2.133333 44.8C887.466667 486.4 881.066667 520.533333 881.066667 533.333333z" p-id="2129" fill="#1296db"></path><path d="M622.933333 738.133333c-2.133333 10.666667-10.666667 17.066667-21.333333 17.066667-2.133333 0-2.133333 0-4.266667 0l-68.266667-14.933333c-8.533333-2.133333-14.933333-8.533333-17.066667-17.066667-2.133333-8.533333 2.133333-17.066667 8.533333-21.333333l68.266667-51.2c8.533333-6.4 23.466667-4.266667 29.866667 4.266667 6.4 8.533333 4.266667 23.466667-4.266667 29.866667l-29.866667 23.466667 21.333333 4.266667C618.666667 716.8 625.066667 727.466667 622.933333 738.133333z" p-id="2130" fill="#1296db"></path><path d="M441.6 819.2c-2.133333 2.133333-4.266667 4.266667-6.4 4.266667-2.133333 0-6.4-2.133333-8.533333-4.266667l-25.6-25.6L375.466667 810.666667c-4.266667 2.133333-10.666667 2.133333-14.933333-4.266667-4.266667-4.266667-2.133333-10.666667 4.266667-14.933333l34.133333-19.2c4.266667-2.133333 10.666667-2.133333 12.8 2.133333l29.866667 29.866667C445.866667 808.533333 445.866667 814.933333 441.6 819.2z" p-id="2131" fill="#1296db"></path><path d="M292.266667 721.066667c-2.133333 8.533333-8.533333 14.933333-17.066667 17.066667l-68.266667 14.933333c-2.133333 0-2.133333 0-4.266667 0-10.666667 0-19.2-6.4-21.333333-17.066667-2.133333-10.666667 4.266667-23.466667 17.066667-25.6l21.333333-4.266667L189.866667 682.666667c-8.533333-6.4-10.666667-21.333333-4.266667-29.866667 6.4-8.533333 21.333333-10.666667 29.866667-4.266667l68.266667 51.2C290.133333 704 294.4 712.533333 292.266667 721.066667z" p-id="2132" fill="#1296db"></path><path d="M196.266667 215.466667C194.133333 215.466667 194.133333 215.466667 196.266667 215.466667c-38.4 4.266667-55.466667 23.466667-61.866667 44.8-2.133333 8.533333-2.133333 17.066667-2.133333 25.6 2.133333 36.266667 27.733333 59.733333 66.133333 59.733333 2.133333 0 4.266667 0 8.533333 0 46.933333-4.266667 96-36.266667 93.866667-72.533333C296.533333 234.666667 241.066667 211.2 196.266667 215.466667zM204.8 332.8c-36.266667 2.133333-59.733333-17.066667-61.866667-49.066667-2.133333-34.133333 17.066667-55.466667 53.333333-59.733333 2.133333 0 6.4 0 8.533333 0 38.4 0 81.066667 19.2 83.2 46.933333C290.133333 302.933333 245.333333 330.666667 204.8 332.8z" p-id="2133" fill="#1296db"></path><path d="M661.333333 241.066667c-10.666667-14.933333-27.733333-21.333333-49.066667-25.6-44.8-4.266667-102.4 17.066667-106.666667 53.333333-2.133333 17.066667 8.533333 34.133333 27.733333 51.2 17.066667 12.8 40.533333 23.466667 64 25.6 4.266667 0 8.533333 0 10.666667 0 36.266667 0 59.733333-21.333333 64-57.6C674.133333 268.8 669.866667 253.866667 661.333333 241.066667zM661.333333 285.866667c-4.266667 34.133333-27.733333 51.2-64 46.933333-21.333333-2.133333-42.666667-10.666667-57.6-23.466667-17.066667-12.8-25.6-27.733333-23.466667-40.533333 2.133333-25.6 44.8-44.8 81.066667-44.8 4.266667 0 8.533333 0 12.8 0 19.2 2.133333 34.133333 8.533333 42.666667 21.333333C659.2 258.133333 663.466667 270.933333 661.333333 285.866667z" p-id="2134" fill="#1296db"></path></svg>